<svg xmlns="http://www.w3.org/2000/svg" viewBox="0 0 512 512" role="img" aria-labelledby="title desc">
  <title id="title">Ansh Gupta AG monogram</title>
  <desc id="desc">A minimal black, white, and soft gold AG typography mark.</desc>
  <rect width="512" height="512" rx="72" fill="#080808" />
  <path d="M112 360 194 136h45l82 224h-45l-16-45h-78l-16 45h-54Zm94-113h31l-15-45-16 45Z" fill="#FAFAFA" />
  <path
    d="M336 364c-51 0-88-36-88-91 0-56 38-93 91-93 36 0 64 16 78 43l-34 20c-8-14-22-22-42-22-29 0-49 21-49 52 0 32 20 53 50 53 23 0 39-10 45-28h-49v-36h92v18c0 58-37 84-94 84Z"
    fill="#FAFAFA"
  />
  <circle cx="422" cy="352" r="14" fill="#D6B35A" />
</svg>
